<svg width="63" height="63" viewBox="0 0 63 63" fill="none" xmlns="http://www.w3.org/2000/svg">
<path d="M26.5205 55.1006V48.9053" stroke="#2F3E45" stroke-width="2.5" stroke-linecap="round" stroke-linejoin="round"/>
<path d="M37.1353 55.1006V48.9053" stroke="#2F3E45" stroke-width="2.5" stroke-linecap="round" stroke-linejoin="round"/>
<path d="M48.7192 48.9053H5.60053C3.61184 48.9053 2 47.2923 2 45.3048V9.34271C2 7.35522 3.61184 5.74219 5.60053 5.74219H15.9412" stroke="#2F3E45" stroke-width="2.5" stroke-linecap="round" stroke-linejoin="round"/>
<path d="M47.709 5.74219H58.0497C60.0384 5.74219 61.6502 7.35522 61.6502 9.34271V45.3048C61.6502 47.2923 60.0384 48.9053 58.0497 48.9053H52.9213" stroke="#2F3E45" stroke-width="2.5" stroke-linecap="round" stroke-linejoin="round"/>
<path d="M15.9408 9.34277H6.08017C5.81493 9.34277 5.6001 9.5576 5.6001 9.82284V44.8248C5.6001 45.09 5.81493 45.3048 6.08017 45.3048H57.5677C57.8329 45.3048 58.0478 45.09 58.0478 44.8248V9.82284C58.0478 9.5576 57.8329 9.34277 57.5677 9.34277H47.707" stroke="#2F3E45" stroke-width="2.5" stroke-linecap="round" stroke-linejoin="round"/>
<path d="M38.1109 55.1006H25.5379C23.1267 55.1006 21.1729 57.0545 21.1729 59.4656V61.0667C21.1729 61.3883 21.4333 61.6487 21.7549 61.6487H41.8951C42.2167 61.6487 42.4772 61.3883 42.4772 61.0667V59.4656C42.4772 57.0545 40.5233 55.1006 38.1121 55.1006H38.1109Z" stroke="#2F3E45" stroke-width="2.5" stroke-linecap="round" stroke-linejoin="round"/>
<path d="M15.9414 13.5421V5.60053C15.9414 3.61184 17.5532 2 19.5419 2H44.1059C46.0946 2 47.7064 3.61184 47.7064 5.60053V45.3047H15.9414V17.7427" stroke="#2F3E45" stroke-width="2.5" stroke-linecap="round" stroke-linejoin="round"/>
<path class="hover-effect" d="M31.8252 28.6439C25.9683 28.6439 21.2036 23.8792 21.2036 18.0223C21.2036 12.1655 25.9683 7.40076 31.8252 7.40076C37.682 7.40076 42.4467 12.1655 42.4467 18.0223C42.4467 23.8792 37.682 28.6439 31.8252 28.6439Z" stroke="#2F3E45" stroke-width="2.5" stroke-linecap="round" stroke-linejoin="round"/>
<path class="hover-effect" d="M30.0127 22.7211C29.3982 22.7211 28.7837 22.487 28.3156 22.019L26.3209 20.0243C25.6176 19.321 25.6176 18.182 26.3209 17.4787C27.0242 16.7754 28.1644 16.7754 28.8665 17.4787L29.757 18.3692C29.8975 18.5096 30.1255 18.5096 30.2659 18.3692L34.7486 13.8866C35.4339 13.2013 36.55 13.1377 37.2677 13.7906C38.0334 14.4867 38.0538 15.6736 37.3313 16.3961L31.7097 22.0178C31.2417 22.4858 30.6272 22.7199 30.0127 22.7199V22.7211Z" stroke="#2F3E45" stroke-width="2" stroke-linecap="round" stroke-linejoin="round"/>
<path d="M21.4609 34.5248H42.1892" stroke="#2F3E45" stroke-width="2.5" stroke-linecap="round" stroke-linejoin="round"/>
<path d="M21.4609 39.9255H42.1892" stroke="#2F3E45" stroke-width="2.5" stroke-linecap="round" stroke-linejoin="round"/>
</svg>
