<svg width="61" height="66" viewBox="0 0 61 66" fill="none" xmlns="http://www.w3.org/2000/svg">
<path d="M12.897 18.018C16.027 12.9903 18.9697 8.62931 20.3956 6.2369L22.4894 2.71596C23.0979 1.69371 23.8191 1.60768 24.4884 2.71596L26.6252 6.2369C28.9556 10.0817 35.1966 19.0593 39.8031 27.7155" stroke="#2F3E45" stroke-width="2" stroke-linecap="round" stroke-linejoin="round"/>
<path d="M10.6327 21.7263C6.09834 29.3362 1.8335 37.6926 1.8335 42.9076C1.8335 56.5751 12.686 64.8189 23.5107 64.7948C28.088 64.8049 32.6717 63.3361 36.4368 60.6046" stroke="#2F3E45" stroke-width="2" stroke-linecap="round" stroke-linejoin="round"/>
<path d="M9.0957 43.3124C9.0957 48.6842 11.1313 53.3109 15.8668 56.0791" stroke="#2F3E45" stroke-width="2" stroke-linecap="round" stroke-linejoin="round"/>
<path d="M57.2263 36.0313C58.685 38.5528 59.5238 41.4791 59.5238 44.599C59.5238 54.0383 51.8747 61.6913 42.4416 61.6913C33.0086 61.6913 25.3633 54.0383 25.3633 44.599C25.3633 35.1596 33.0124 27.5105 42.4416 27.5105C47.0013 27.5105 51.1409 29.2969 54.2051 32.208" stroke="#2F3E45" stroke-width="2" stroke-linecap="round" stroke-linejoin="round"/>
<path class="hover-effect" d="M41.1338 45.8403C42.2598 43.3872 45.9515 45.1736 43.8931 47.881C43.1871 48.8058 41.2008 50.7175 41.2008 50.7175H44.5991" stroke="#2F3E45" stroke-width="2" stroke-linecap="round" stroke-linejoin="round"/>
<path class="hover-effect" d="M31.6724 47.3254V39.8976" stroke="#2F3E45" stroke-width="2" stroke-linecap="round" stroke-linejoin="round"/>
<path class="hover-effect" d="M37.0459 47.3254V39.8976" stroke="#2F3E45" stroke-width="2" stroke-linecap="round" stroke-linejoin="round"/>
<path class="hover-effect" d="M31.6724 43.6097H37.0455" stroke="#2F3E45" stroke-width="2" stroke-linecap="round" stroke-linejoin="round"/>
<path class="hover-effect" d="M51.5747 47.91C53.7609 47.91 55.5461 46.1235 55.5461 43.9361C55.5461 41.7486 53.7609 39.9584 51.5747 39.9584C49.3885 39.9584 47.5996 41.7448 47.5996 43.9361C47.5996 46.1273 49.3847 47.91 51.5747 47.91Z" stroke="#2F3E45" stroke-width="2" stroke-linecap="round" stroke-linejoin="round"/>
</svg>
