<svg width="66" height="65" viewBox="0 0 66 65" fill="none" xmlns="http://www.w3.org/2000/svg">
<path d="M3.25018 28.1842C2.56008 28.1842 2 28.7443 2 29.4344V62.3854C2 63.0755 2.56008 63.6356 3.25018 63.6356H15.5495V28.1842H3.25018ZM31.2655 63.6356H27.3049V56.8934C27.3049 56.6858 27.4724 56.5183 27.68 56.5183H30.8904C31.098 56.5183 31.2655 56.6858 31.2655 56.8934V63.6356Z" stroke="#2F3E45" stroke-width="2.50036" stroke-linecap="round" stroke-linejoin="round"/>
<path d="M48.016 33.8799C47.8922 33.9436 47.8135 34.0712 47.8135 34.2112V39.3282C47.8135 39.5357 47.981 39.7032 48.1885 39.7032H51.399C51.6065 39.7032 51.7741 39.5357 51.7741 39.3282V34.2112C51.7741 34.0662 51.6915 33.9424 51.5715 33.8799" stroke="#2F3E45" stroke-width="2" stroke-linejoin="round"/>
<path class="hover-effect" d="M45.8599 17.7277L49.2654 21.3032L54.0335 15.9399M51.3994 52.0252H48.189C47.9814 52.0252 47.8139 51.8576 47.8139 51.6501V46.5331C47.8139 46.3256 47.9814 46.1581 48.189 46.1581H51.3994C51.6069 46.1581 51.7745 46.3256 51.7745 46.5331V51.6501C51.7745 51.8576 51.6069 52.0252 51.3994 52.0252Z" stroke="#2F3E45" stroke-width="2" stroke-linecap="round" stroke-linejoin="round"/>
<path d="M35.456 12.8568H16.8008C16.1107 12.8568 15.5506 13.4169 15.5506 14.107V18.1113M23.1417 28.5553H19.9313C19.7237 28.5553 19.5562 28.3878 19.5562 28.1803V23.0633C19.5562 22.8558 19.7237 22.6882 19.9313 22.6882H23.1417C23.3493 22.6882 23.5168 22.8558 23.5168 23.0633V28.1803C23.5168 28.3878 23.3493 28.5553 23.1417 28.5553ZM23.1417 40.2908H19.9313C19.7237 40.2908 19.5562 40.1232 19.5562 39.9157V34.7987C19.5562 34.5912 19.7237 34.4237 19.9313 34.4237H23.1417C23.3493 34.4237 23.5168 34.5912 23.5168 34.7987V39.9157C23.5168 40.1232 23.3493 40.2908 23.1417 40.2908ZM23.1417 52.0262H19.9313C19.7237 52.0262 19.5562 51.8587 19.5562 51.6512V46.5342C19.5562 46.3266 19.7237 46.1591 19.9313 46.1591H23.1417C23.3493 46.1591 23.5168 46.3266 23.5168 46.5342V51.6512C23.5168 51.8587 23.3493 52.0262 23.1417 52.0262ZM30.8929 28.5553H27.6824C27.4749 28.5553 27.3073 28.3878 27.3073 28.1803V23.0633C27.3073 22.8558 27.4749 22.6882 27.6824 22.6882H30.8929C31.1004 22.6882 31.2679 22.8558 31.2679 23.0633V28.1803C31.2679 28.3878 31.1004 28.5553 30.8929 28.5553ZM30.8929 40.2908H27.6824C27.4749 40.2908 27.3073 40.1232 27.3073 39.9157V34.7987C27.3073 34.5912 27.4749 34.4237 27.6824 34.4237H30.8929C31.1004 34.4237 31.2679 34.5912 31.2679 34.7987V39.9157C31.2679 40.1232 31.1004 40.2908 30.8929 40.2908ZM30.8929 52.0262H27.6824C27.4749 52.0262 27.3073 51.8587 27.3073 51.6512V46.5342C27.3073 46.3266 27.4749 46.1591 27.6824 46.1591H30.8929C31.1004 46.1591 31.2679 46.3266 31.2679 46.5342V51.6512C31.2679 51.8587 31.1004 52.0262 30.8929 52.0262ZM38.644 40.2908H35.4335C35.226 40.2908 35.0585 40.1232 35.0585 39.9157V34.7987C35.0585 34.5912 35.226 34.4237 35.4335 34.4237H38.644C38.8515 34.4237 39.019 34.5912 39.019 34.7987V39.9157C39.019 40.1232 38.8515 40.2908 38.644 40.2908ZM38.644 52.0262H35.4335C35.226 52.0262 35.0585 51.8587 35.0585 51.6512V46.5342C35.0585 46.3266 35.226 46.1591 35.4335 46.1591H38.644C38.8515 46.1591 39.019 46.3266 39.019 46.5342V51.6512C39.019 51.8587 38.8515 52.0262 38.644 52.0262ZM10.3824 39.7044H7.17193C6.9644 39.7044 6.79688 39.5369 6.79688 39.3294V34.2124C6.79688 34.0049 6.9644 33.8373 7.17193 33.8373H10.3824C10.5899 33.8373 10.7574 34.0049 10.7574 34.2124V39.3294C10.7574 39.5369 10.5899 39.7044 10.3824 39.7044ZM10.3824 52.0262H7.17193C6.9644 52.0262 6.79688 51.8587 6.79688 51.6512V46.5342C6.79688 46.3266 6.9644 46.1591 7.17193 46.1591H10.3824C10.5899 46.1591 10.7574 46.3266 10.7574 46.5342V51.6512C10.7574 51.8587 10.5899 52.0262 10.3824 52.0262Z" stroke="#2F3E45" stroke-width="2" stroke-linecap="round" stroke-linejoin="round"/>
<path d="M35.4562 12.8568H16.801C16.1109 12.8568 15.5508 13.4169 15.5508 14.107V18.1113" stroke="#2F3E45" stroke-width="2.50036" stroke-linecap="round" stroke-linejoin="round"/>
<path class="hover-effect" d="M42.8423 11.7042L40.7345 12.9206C40.6295 12.9819 40.5645 13.0944 40.5645 13.2157V16.3824C40.5645 20.8968 42.9723 25.0686 46.8829 27.3252L49.6258 28.9092C49.7308 28.9704 49.8608 28.9704 49.9658 28.9092L52.7087 27.3264C56.618 25.0699 59.0271 20.898 59.0271 16.3836V13.2169C59.0271 13.0956 58.9621 12.9831 58.8571 12.9219L49.9671 7.78862C49.862 7.72736 49.732 7.72736 49.627 7.78862L46.6428 9.51137" stroke="#2F3E45" stroke-width="2.50036" stroke-linecap="round" stroke-linejoin="round"/>
<path d="M15.5493 22.4871V63.6355H43.0195M43.0195 63.6355V30.9133M43.0195 63.6355H55.3188C56.0089 63.6355 56.569 63.0754 56.569 62.3853V57.8022" stroke="#2F3E45" stroke-width="2.50036" stroke-linecap="round" stroke-linejoin="round"/>
<path d="M36.6134 22.687H35.4307C35.2232 22.687 35.0557 22.8545 35.0557 23.0621V28.1791C35.0557 28.3866 35.2232 28.5541 35.4307 28.5541H38.6412C38.8487 28.5541 39.0162 28.3866 39.0162 28.1791V27.0414" stroke="#2F3E45" stroke-width="2" stroke-linejoin="round"/>
<path d="M56.5684 53.4265V30.9132" stroke="#2F3E45" stroke-width="2.50036" stroke-linecap="round" stroke-linejoin="round"/>
<path d="M44.3266 31.7496C38.8371 28.5804 35.4541 22.7221 35.4541 16.3824V10.8553C35.4541 10.369 35.7141 9.91895 36.1354 9.67517L49.1123 2.18284C49.5336 1.93905 50.0525 1.93905 50.475 2.18284L63.4519 9.67517C63.8732 9.91895 64.1332 10.3678 64.1332 10.8553V16.3824C64.1332 22.7221 60.7515 28.5791 55.2607 31.7496L50.475 34.5125C50.0537 34.7563 49.5349 34.7563 49.1123 34.5125L44.3266 31.7496Z" stroke="#2F3E45" stroke-width="2.50036" stroke-linecap="round" stroke-linejoin="round"/>
</svg>
