<svg width="66" height="62" viewBox="0 0 66 62" fill="none" xmlns="http://www.w3.org/2000/svg">
<path d="M31.8077 30.8862L27.1408 19.0891C26.6429 17.8299 25.4263 17.0021 24.0718 17.0021H19.7786C18.9734 17.0021 18.1958 17.2968 17.5913 17.8311L12.5518 22.2898C11.9072 22.8605 11.5108 23.6594 11.4469 24.5186L10.4724 37.6803L5.8857 39.4236C4.60515 39.9103 3.75856 41.1381 3.75856 42.509V48.5568L1.93117 52.2881C1.28651 53.6025 2.24347 55.1364 3.70713 55.1364H14.6978M53.4391 55.1364H62.0832C63.1756 55.1364 64.0611 54.2509 64.0611 53.1572V51.6685C64.0611 50.5635 63.5079 49.5313 62.5886 48.9205L57.1993 45.3347V37.4056C57.1993 35.7851 56.0216 34.4043 54.4212 34.1471L40.6888 31.946C39.9877 31.8331 39.2691 31.9498 38.6394 32.2784L33.4332 34.995" stroke="#2F3E45" stroke-width="2" stroke-linecap="round" stroke-linejoin="round"/>
<path class="hover-effect" d="M50.5735 9.97097H45.6532V1.70195C45.6532 0.93563 44.6009 0.724923 44.3049 1.4323L39.4361 13.0814C39.0498 14.007 39.7295 15.028 40.7317 15.028H45.6519V23.297C45.6519 24.0633 46.7042 24.274 47.0002 23.5666L51.8691 11.9175C52.2554 10.9919 51.5756 9.97223 50.5735 9.97223V9.97097Z" stroke="#2F3E45" stroke-width="2" stroke-linecap="round" stroke-linejoin="round"/>
<path d="M33.8626 60.1042H51.4617C52.5542 60.1042 53.4396 59.2188 53.4396 58.1263V53.7253C53.4396 52.5965 52.8627 51.5468 51.9108 50.941L43.0999 45.3346V41.6523C43.0999 40.3755 42.3637 39.2128 41.2086 38.6673L33.4325 34.9949L25.7793 41.7087L20.7386 41.9834C19.3301 42.0599 18.1261 43.0231 17.7423 44.3802L14.0047 57.587C13.6473 58.85 14.5955 60.1042 15.9086 60.1042H29.4165" stroke="#2F3E45" stroke-width="2" stroke-linecap="round" stroke-linejoin="round"/>
<path d="M43.1008 45.3347L39.5564 50.9511L33.0483 52.3608C32.0436 52.579 31.2447 53.3378 30.9763 54.3299L29.4148 60.1043M10.4712 37.6802L14.0344 36.5464C14.9274 36.263 15.5332 35.4327 15.5332 34.4971V26.9291" stroke="#2F3E45" stroke-width="2" stroke-linecap="round" stroke-linejoin="round"/>
</svg>
