<svg width="65" height="65" viewBox="0 0 65 65" fill="none" xmlns="http://www.w3.org/2000/svg">
<path d="M41.9873 33.6174V27.9043C41.9873 27.2071 42.5532 26.6412 43.2504 26.6412H51.0817C51.779 26.6412 52.3448 27.2071 52.3448 27.9043V33.4671" stroke="#2F3E45" stroke-width="2" stroke-linecap="round" stroke-linejoin="round"/>
<path d="M10.5996 18.9829V12.3225C10.5996 11.6253 11.1655 11.0594 11.8627 11.0594H19.694C20.3913 11.0594 20.9571 11.6253 20.9571 12.3225V18.9829" stroke="#2F3E45" stroke-width="2" stroke-linecap="round" stroke-linejoin="round"/>
<path d="M63.7758 42.8091V22.094C63.7758 21.2578 63.4361 20.4999 62.8879 19.9505C62.3384 19.4023 61.5805 19.0625 60.7444 19.0625C59.0707 19.0625 57.7129 20.4203 57.7129 22.094V36.0741" stroke="#2F3E45" stroke-width="2" stroke-linecap="round" stroke-linejoin="round"/>
<path d="M50.4522 26.6412V6.05246C50.4522 3.26224 48.19 1 45.3997 1H17.5481C14.7578 1 12.4956 3.26224 12.4956 6.05246V11.0607" stroke="#2F3E45" stroke-width="2" stroke-linecap="round" stroke-linejoin="round"/>
<path d="M32.9297 7.5683H43.1243C43.5424 7.5683 43.8822 7.90808 43.8822 8.32617V26.6413" stroke="#2F3E45" stroke-width="2" stroke-linecap="round" stroke-linejoin="round"/>
<path d="M19.0625 11.0595V8.32488C19.0625 7.90679 19.4023 7.56702 19.8204 7.56702H29.1409" stroke="#2F3E45" stroke-width="2" stroke-linecap="round" stroke-linejoin="round"/>
<path d="M30.5569 63.7768H2.26311C1.56588 63.7768 1 63.2109 1 62.5136V25.4059C1 24.96 1.23494 24.5482 1.61766 24.3196L15.133 16.2874C15.5309 16.0512 16.026 16.0512 16.4239 16.2874L29.9392 24.3196C30.3219 24.5469 30.5569 24.96 30.5569 25.4059V63.7768Z" stroke="#2F3E45" stroke-width="2" stroke-linecap="round" stroke-linejoin="round"/>
<path d="M1 28.4764H30.5569" stroke="#2F3E45" stroke-width="2" stroke-linecap="round" stroke-linejoin="round"/>
<path d="M30.5569 33.563H1" stroke="#2F3E45" stroke-width="2" stroke-linecap="round" stroke-linejoin="round"/>
<path d="M63.778 59.5377V62.5136C63.778 63.2108 63.2121 63.7767 62.5149 63.7767H30.5581" stroke="#2F3E45" stroke-width="2" stroke-linecap="round" stroke-linejoin="round"/>
<path d="M30.5581 39.8191C30.5581 39.3303 30.8398 38.8857 31.2819 38.6773L46.8485 31.3209C47.1946 31.158 47.5963 31.1592 47.9398 31.3272L63.0669 38.6748C63.5014 38.8857 63.778 39.3278 63.778 39.8116V55.7495" stroke="#2F3E45" stroke-width="2" stroke-linecap="round" stroke-linejoin="round"/>
<path d="M30.5581 42.7698H63.778" stroke="#2F3E45" stroke-width="2" stroke-linecap="round" stroke-linejoin="round"/>
<path d="M63.778 47.8564H30.5581" stroke="#2F3E45" stroke-width="2" stroke-linecap="round" stroke-linejoin="round"/>
<path class="hover-effect" d="M18.2043 39.6981C18.9508 39.6918 19.4497 40.3777 19.1996 41.0231C18.5352 42.7397 17.7988 44.4348 17.0814 46.1311C17.0371 46.2335 17.0687 46.2764 17.1534 46.3257C18.4973 47.1012 19.8387 47.8831 21.1839 48.6561C21.8471 49.0376 21.9519 49.8131 21.3987 50.3373C18.9621 52.6488 16.5218 54.9565 14.0827 57.2642C13.6735 57.652 13.2705 57.7392 12.8512 57.5358C12.3939 57.3148 12.1704 56.7944 12.356 56.3131C12.6099 55.655 12.8891 55.0071 13.1606 54.3553C13.5977 53.3044 14.0347 52.2535 14.4768 51.2051C14.5223 51.0977 14.4844 51.0598 14.4023 51.0131C13.0419 50.2312 11.6676 49.4632 10.3237 48.6523C9.69845 48.2747 9.62393 47.5054 10.157 47.0002C12.5948 44.6899 15.0402 42.3873 17.4729 40.072C17.6978 39.8585 17.9441 39.7057 18.2043 39.6968V39.6981Z" stroke="#2F3E45" stroke-width="2" stroke-linecap="round" stroke-linejoin="round"/>
<path class="hover-effect" d="M47.167 63.7767V57.6417" stroke="#2F3E45" stroke-width="2" stroke-linecap="round" stroke-linejoin="round"/>
<path class="hover-effect" d="M49.4457 60.0103H47.167V57.7316C47.167 54.7077 49.6187 52.2573 52.6413 52.2573H54.4147C54.6939 52.2573 54.92 52.4834 54.92 52.7625V54.5359C54.92 57.5598 52.4695 60.0103 49.4457 60.0103Z" stroke="#2F3E45" stroke-width="2" stroke-linecap="round" stroke-linejoin="round"/>
<path class="hover-effect" d="M44.8889 60.0104H47.1675V57.7317C47.1675 54.7078 44.7158 52.2574 41.6932 52.2574H39.9198C39.6406 52.2574 39.4146 52.4835 39.4146 52.7626V54.536C39.4146 57.5599 41.865 60.0104 44.8889 60.0104Z" stroke="#2F3E45" stroke-width="2" stroke-linecap="round" stroke-linejoin="round"/>
</svg>
