<svg width="37" height="40" viewBox="0 0 37 40" fill="none" xmlns="http://www.w3.org/2000/svg">
<path d="M5.16211 37.9862C5.16211 38.6709 5.71762 39.2264 6.40234 39.2264H34.9315C35.617 39.2264 36.1718 38.6709 36.1718 37.9862V7.48947C36.1718 7.16065 36.041 6.84498 35.8081 6.6121L30.3335 1.13744C30.1006 0.904558 29.7857 0.773804 29.4561 0.773804H6.40312C5.7184 0.773804 5.16288 1.32932 5.16288 2.01404V21.8608" stroke="#2F3E45" stroke-width="1.54739" stroke-linecap="round" stroke-linejoin="round"/>
<path d="M29.3496 0.773804V6.97574C29.3496 7.31849 29.6274 7.59624 29.9701 7.59624H36.172" stroke="#2F3E45" stroke-width="1.54739" stroke-linecap="round" stroke-linejoin="round"/>
<path d="M19.2989 27.4608H17.3027V32.3862" stroke="#2F3E45" stroke-width="1.54739" stroke-linecap="round" stroke-linejoin="round"/>
<path d="M17.3027 29.8763H19.1403" stroke="#2F3E45" stroke-width="1.54739" stroke-linecap="round" stroke-linejoin="round"/>
<path d="M11.6035 27.5212V32.2532" stroke="#2F3E45" stroke-width="1.54739" stroke-linecap="round" stroke-linejoin="round"/>
<path d="M14.9118 29.9236C14.9118 31.2505 14.1753 32.3004 13.007 32.3205C12.6178 32.3274 11.6136 32.3313 11.6136 32.3313C11.6136 32.3313 11.6074 30.5874 11.6074 29.9189C11.6074 29.3696 11.6035 27.5166 11.6035 27.5166H12.9675C14.2488 27.5166 14.9118 28.5975 14.9118 29.9243V29.9236Z" stroke="#2F3E45" stroke-width="1.54739" stroke-linecap="round" stroke-linejoin="round"/>
<path d="M6.38477 27.4423V32.404" stroke="#2F3E45" stroke-width="1.54739" stroke-linecap="round" stroke-linejoin="round"/>
<path d="M9.19328 28.8426C9.19328 29.6156 8.53873 30.243 7.76581 30.243C7.38206 30.243 6.39405 30.2492 6.39405 30.2492C6.39405 30.2492 6.38786 29.2326 6.38786 28.8426C6.38786 28.5223 6.38477 27.4423 6.38477 27.4423H7.76658C8.5395 27.4423 9.19405 28.069 9.19405 28.8426H9.19328Z" stroke="#2F3E45" stroke-width="1.54739" stroke-linecap="round" stroke-linejoin="round"/>
<path class="hover-effect" d="M13.7512 20.6987C11.6986 17.5297 28.8035 14.5989 27.8449 17.525C26.371 22.0218 15.2267 6.87282 20.0615 7.13433C22.8576 7.2852 15.9052 24.0241 13.7512 20.6987Z" stroke="#2F3E45" stroke-width="1.54739" stroke-linecap="round" stroke-linejoin="round"/>
<path d="M1.44141 22.4813V33.6449C1.44141 34.6724 2.27468 35.5057 3.30214 35.5057H22.5284C23.2139 35.5057 23.7687 34.9502 23.7687 34.2654V25.583C23.7687 24.8983 23.2132 24.3428 22.5284 24.3428H3.30214C2.27468 24.3428 1.44141 23.5095 1.44141 22.4821C1.44141 21.4546 2.27468 20.6213 3.30214 20.6213H5.16288" stroke="#2F3E45" stroke-width="1.54739" stroke-linecap="round" stroke-linejoin="round"/>
</svg>
