<svg width="64" height="64" viewBox="0 0 64 64" fill="none" xmlns="http://www.w3.org/2000/svg">
<path d="M49.5 37.5V51.5C49.5 57.0229 45.0229 61.5 39.5 61.5H14.5C8.97713 61.5 4.5 57.0229 4.5 51.5V12.5C4.5 6.97713 8.97713 2.5 14.5 2.5H30.5457" stroke="#253136" stroke-width="3" stroke-miterlimit="10" stroke-linecap="round" stroke-linejoin="round"/>
<path d="M24.5 46.5L29.5 51.5L39.5 41.5M59.5 7.5V11.3C59.5 18.15 55.6499 24.45 49.5 27.5C43.3501 24.4501 39.5 18.15 39.5 11.3V7.5C39.5 7.5 44.0001 2.5 49.5 2.5C54.9999 2.5 59.5 7.5 59.5 7.5Z" stroke="#253136" stroke-width="3" stroke-miterlimit="10" stroke-linecap="round" stroke-linejoin="round"/>
<path class="hover-effect" d="M15 17.5H25M15 27.5H25" stroke="#253136" stroke-width="3" stroke-miterlimit="10" stroke-linecap="round" stroke-linejoin="round"/>
</svg>
