<svg xmlns="http://www.w3.org/2000/svg" width="360.695" height="360.69" viewBox="0 0 360.695 360.69">
  <g id="noun-player-2039307" transform="translate(-18.816 -18.815)" opacity="0.7">
    <path id="Path_103" data-name="Path 103" d="M199.409,18.815h-.6A181.4,181.4,0,0,0,18.816,199.895,181.358,181.358,0,0,0,198.737,379.5h.723A179.9,179.9,0,0,0,326.135,71.717a178.557,178.557,0,0,0-126.726-52.9ZM317.856,318.522a166.947,166.947,0,0,1-118.4,49.416h-.678a169.753,169.753,0,0,1-168.4-168.123A169.838,169.838,0,0,1,198.85,30.382h.556a168.335,168.335,0,0,1,118.45,288.14Z" transform="translate(0 0)" fill="#fff"/>
    <path id="Path_104" data-name="Path 104" d="M170.917,117.179,51.671,35.961a5.783,5.783,0,0,0-9.039,4.778v162.4a5.785,5.785,0,0,0,9.036,4.784l119.246-81.184a5.778,5.778,0,0,0,0-9.556ZM54.2,192.2V51.673l103.187,70.284Z" transform="translate(113.917 77.209)" fill="#fff"/>
  </g>
</svg>
