<svg width="54" height="69" viewBox="0 0 54 69" fill="none" xmlns="http://www.w3.org/2000/svg">
<path d="M31.1761 2H16.3037C9.58112 2 6.21984 2 4.1314 4.11744C2.04297 6.23488 2.04297 9.64285 2.04297 16.4588V52.6058C2.04297 59.4217 2.04297 62.8297 4.1314 64.9471C6.21984 67.0646 9.58112 67.0646 16.3037 67.0646H37.6948C44.4173 67.0646 47.7786 67.0646 49.8671 64.9471C51.9555 62.8297 51.9555 59.4217 51.9555 52.6058V23.068C51.9555 21.5905 51.9555 20.8517 51.6841 20.1875C51.4127 19.5232 50.8975 19.0008 49.8671 17.956L36.218 4.11744C35.1876 3.07268 34.6724 2.5503 34.0172 2.27515C33.362 2 32.6334 2 31.1761 2Z" fill="white" stroke="#2F3E45" stroke-width="3"/>
<path d="M19.082 35.3334L38.8081 35.3334" stroke="#FF9900" stroke-width="3" stroke-linecap="round"/>
<path d="M19.082 48.6667L32.2327 48.6667" stroke="#FF9900" stroke-width="3" stroke-linecap="round"/>
<path d="M32.2344 2V15.3333C32.2344 18.476 32.2344 20.0474 33.1973 21.0237C34.1602 22 35.7101 22 38.8097 22H51.9604" stroke="#2F3E45" stroke-width="3"/>
</svg>
