<svg width="73" height="78" viewBox="0 0 73 78" fill="none" xmlns="http://www.w3.org/2000/svg">
<path d="M58.375 45.875V63.375C58.375 70.2786 52.7786 75.875 45.875 75.875H14.625C7.72141 75.875 2.125 70.2786 2.125 63.375V14.625C2.125 7.72141 7.72141 2.125 14.625 2.125H34.6822M14.625 20.875H27.125M14.625 33.375H27.125" stroke="#36474F" stroke-width="3.75" stroke-miterlimit="10" stroke-linecap="round" stroke-linejoin="round"/>
<path d="M27.125 57.125L33.375 63.375L45.875 50.875M70.875 8.375V13.125C70.875 21.6875 66.0623 29.5625 58.375 33.375C50.6877 29.5627 45.875 21.6875 45.875 13.125V8.375C45.875 8.375 51.5002 2.125 58.375 2.125C65.2498 2.125 70.875 8.375 70.875 8.375Z" stroke="#FF9900" stroke-width="3.75" stroke-miterlimit="10" stroke-linecap="round" stroke-linejoin="round"/>
</svg>
