<svg width="23" height="24" viewBox="0 0 23 24" fill="none" xmlns="http://www.w3.org/2000/svg">
<path d="M5.37012 6.36145C6.52081 4.51308 7.60268 2.90983 8.12686 2.03029L8.89663 0.735872C9.12035 0.360058 9.38547 0.328431 9.63151 0.735872L10.4171 2.03029C11.2738 3.44378 13.5683 6.74425 15.2617 9.92657" stroke="#2F3E45" stroke-width="0.883721" stroke-linecap="round" stroke-linejoin="round"/>
<path d="M4.53762 7.72473C2.87064 10.5224 1.30273 13.5945 1.30273 15.5117C1.30273 20.5364 5.2925 23.5671 9.27204 23.5582C10.9548 23.5619 12.6399 23.0219 14.0241 22.0178" stroke="#2F3E45" stroke-width="0.883721" stroke-linecap="round" stroke-linejoin="round"/>
<path d="M3.97266 15.6605C3.97266 17.6354 4.72103 19.3363 6.46196 20.354" stroke="#2F3E45" stroke-width="0.883721" stroke-linecap="round" stroke-linejoin="round"/>
<path d="M21.6671 12.9838C22.2034 13.9107 22.5117 14.9865 22.5117 16.1335C22.5117 19.6038 19.6996 22.4172 16.2317 22.4172C12.7638 22.4172 9.95312 19.6038 9.95312 16.1335C9.95312 12.6633 12.7652 9.8512 16.2317 9.8512C17.908 9.8512 19.4299 10.5079 20.5564 11.5782" stroke="#2F3E45" stroke-width="0.883721" stroke-linecap="round" stroke-linejoin="round"/>
<path d="M15.751 16.5898C16.1649 15.688 17.5221 16.3447 16.7654 17.3401C16.5059 17.6801 15.7756 18.3829 15.7756 18.3829H17.0249" stroke="#2F3E45" stroke-width="0.883721" stroke-linecap="round" stroke-linejoin="round"/>
<path d="M12.2725 17.1359V14.4052" stroke="#2F3E45" stroke-width="0.883721" stroke-linecap="round" stroke-linejoin="round"/>
<path d="M14.248 17.1359V14.4052" stroke="#2F3E45" stroke-width="0.883721" stroke-linecap="round" stroke-linejoin="round"/>
<path d="M12.2725 15.7698H14.2478" stroke="#2F3E45" stroke-width="0.883721" stroke-linecap="round" stroke-linejoin="round"/>
<path d="M19.5893 17.3507C20.393 17.3507 21.0493 16.694 21.0493 15.8898C21.0493 15.0856 20.393 14.4275 19.5893 14.4275C18.7856 14.4275 18.1279 15.0842 18.1279 15.8898C18.1279 16.6954 18.7842 17.3507 19.5893 17.3507Z" stroke="#2F3E45" stroke-width="0.883721" stroke-linecap="round" stroke-linejoin="round"/>
</svg>
