<svg width="22" height="24" viewBox="0 0 22 24" fill="none" xmlns="http://www.w3.org/2000/svg">
<path d="M5.12598 2.20071L6.5627 3.63744" stroke="#253136" stroke-width="0.748538" stroke-linecap="round" stroke-linejoin="round"/>
<path d="M4.52969 5.64019L3.1084 4.2189" stroke="#253136" stroke-width="0.748538" stroke-linecap="round" stroke-linejoin="round"/>
<path d="M2.71973 10.7116V8.00939C2.71973 7.63325 2.87037 7.27348 3.13844 7.00962L7.60768 2.60775C7.87014 2.34904 8.22382 2.20401 8.59247 2.20401H19.2676C20.0428 2.20401 20.6711 2.83231 20.6711 3.60752V22.2223C20.6711 22.9975 20.0428 23.6258 19.2676 23.6258H4.12324C3.34803 23.6258 2.71973 22.9975 2.71973 22.2223V12.3275" stroke="#253136" stroke-width="0.748538" stroke-linecap="round" stroke-linejoin="round"/>
<path d="M17.1951 6.8183H11.2433C10.4859 6.8183 9.87207 6.2045 9.87207 5.4466C9.87207 4.68871 10.4859 4.07491 11.2438 4.07491H17.1956C17.953 4.07491 18.5673 4.68871 18.5673 5.4466C18.5673 6.2045 17.9535 6.8183 17.1956 6.8183H17.1951Z" stroke="#253136" stroke-width="0.748538" stroke-linecap="round" stroke-linejoin="round"/>
<path d="M10.5734 19.9388H6.56641V10.5048H16.8261V19.9388H12.2866" stroke="#253136" stroke-width="0.748538" stroke-linecap="round" stroke-linejoin="round"/>
<path d="M16.8262 10.5053L18.8009 8.68961" stroke="#253136" stroke-width="0.748538" stroke-linecap="round" stroke-linejoin="round"/>
<path d="M18.7999 21.7544L16.8252 19.9388" stroke="#253136" stroke-width="0.748538" stroke-linecap="round" stroke-linejoin="round"/>
<path d="M6.56653 19.9388L4.5918 21.7544" stroke="#253136" stroke-width="0.748538" stroke-linecap="round" stroke-linejoin="round"/>
<path d="M6.56653 10.5053L4.5918 8.68961" stroke="#253136" stroke-width="0.748538" stroke-linecap="round" stroke-linejoin="round"/>
<path d="M11.6958 11.8648L10.5706 12.99C9.48947 14.0711 9.48947 15.8236 10.5706 16.9048L11.6958 18.03L12.8209 16.9048C13.9021 15.8236 13.9021 14.0711 12.8209 12.99L11.6958 11.8648Z" stroke="#253136" stroke-width="0.748538" stroke-linecap="round" stroke-linejoin="round"/>
<path d="M11.6963 18.0304V15.2403" stroke="#253136" stroke-width="0.748538" stroke-linecap="round" stroke-linejoin="round"/>
<path d="M11.6963 18.5787V18.0304" stroke="#253136" stroke-width="0.748538" stroke-linecap="round" stroke-linejoin="round"/>
<path d="M5.5561 1.77078L2.67798 4.64891C2.55026 4.77663 2.34254 4.77663 2.21482 4.64891L1.48686 3.92095C1.21271 3.6468 1.21271 3.20236 1.48686 2.92867L3.83587 0.579668C4.11002 0.305516 4.55447 0.305516 4.82815 0.579668L5.5561 1.30762C5.68382 1.43534 5.68382 1.64306 5.5561 1.77078Z" stroke="#253136" stroke-width="0.748538" stroke-linecap="round" stroke-linejoin="round"/>
</svg>
