<svg width="48" height="48" viewBox="0 0 48 48" fill="none" xmlns="http://www.w3.org/2000/svg">
<mask id="mask0_539_14174" style="mask-type:luminance" maskUnits="userSpaceOnUse" x="0" y="0" width="48" height="48">
<path d="M47.7663 0.232056H0.230469V47.7678H47.7663V0.232056Z" fill="white"/>
</mask>
<g mask="url(#mask0_539_14174)">
<path d="M37.0669 37.2135H3.71108C2.17267 37.2135 0.925781 35.9657 0.925781 34.4282V6.6086C0.925781 5.07112 2.17267 3.8233 3.71108 3.8233H11.7105" stroke="#36474F" stroke-width="1.85687" stroke-linecap="round" stroke-linejoin="round"/>
<path d="M36.2852 3.8233H44.2845C45.823 3.8233 47.0698 5.07112 47.0698 6.6086V34.4282C47.0698 35.9657 45.823 37.2135 44.2845 37.2135H40.3173" stroke="#36474F" stroke-width="1.85687" stroke-linecap="round" stroke-linejoin="round"/>
<path d="M11.7103 6.60864H4.08231C3.87713 6.60864 3.71094 6.77483 3.71094 6.98002V34.0568C3.71094 34.262 3.87713 34.4282 4.08231 34.4282H43.9121C44.1173 34.4282 44.2835 34.262 44.2835 34.0568V6.98002C44.2835 6.77483 44.1173 6.60864 43.9121 6.60864H36.2841" stroke="#36474F" stroke-width="1.85687" stroke-linecap="round" stroke-linejoin="round"/>
<path d="M28.8608 42.006H19.1345C17.2693 42.006 15.7578 43.5175 15.7578 45.3828V46.6213C15.7578 46.8701 15.9593 47.0716 16.2081 47.0716H31.7881C32.037 47.0716 32.2384 46.8701 32.2384 46.6213V45.3828C32.2384 43.5175 30.7269 42.006 28.8617 42.006H28.8608Z" stroke="#36474F" stroke-width="1.85687" stroke-linecap="round" stroke-linejoin="round"/>
<path d="M11.7109 9.85721V3.71377C11.7109 2.17535 12.9578 0.928467 14.4962 0.928467H33.4985C35.0369 0.928467 36.2838 2.17535 36.2838 3.71377V34.4282H11.7109V13.1067" stroke="#36474F" stroke-width="1.85687" stroke-linecap="round" stroke-linejoin="round"/>
<path d="M23.9979 21.5397C19.4671 21.5397 15.7812 17.8538 15.7812 13.323C15.7812 8.79226 19.4671 5.10638 23.9979 5.10638C28.5286 5.10638 32.2145 8.79226 32.2145 13.323C32.2145 17.8538 28.5286 21.5397 23.9979 21.5397Z" stroke="#FF9800" stroke-width="1.85687" stroke-linecap="round" stroke-linejoin="round"/>
<path d="M22.5959 16.9579C22.1206 16.9579 21.6452 16.7768 21.2831 16.4147L19.7401 14.8717C19.196 14.3276 19.196 13.4465 19.7401 12.9025C20.2841 12.3584 21.1662 12.3584 21.7093 12.9025L22.3982 13.5914C22.5068 13.7 22.6832 13.7 22.7918 13.5914L26.2595 10.1237C26.7897 9.59354 27.6531 9.54434 28.2083 10.0494C28.8007 10.5879 28.8164 11.5061 28.2575 12.065L23.9087 16.4138C23.5467 16.7759 23.0713 16.9569 22.5959 16.9569V16.9579Z" stroke="#FF9800" stroke-width="1.85687" stroke-linecap="round" stroke-linejoin="round"/>
<path d="M15.9805 26.089H32.0154" stroke="#36474F" stroke-width="1.85687" stroke-linecap="round" stroke-linejoin="round"/>
<path d="M15.9805 30.267H32.0154" stroke="#36474F" stroke-width="1.85687" stroke-linecap="round" stroke-linejoin="round"/>
</g>
</svg>
