<svg width="24" height="24" viewBox="0 0 24 24" fill="none" xmlns="http://www.w3.org/2000/svg">
<g clip-path="url(#clip0_999_9306)">
<mask id="mask0_999_9306" style="mask-type:luminance" maskUnits="userSpaceOnUse" x="0" y="0" width="24" height="24">
<path d="M23.9305 0.0699463H0.0703125V23.9301H23.9305V0.0699463Z" fill="white"/>
</mask>
<g mask="url(#mask0_999_9306)">
<path d="M15.542 12.4535V10.3457C15.542 10.0884 15.7508 9.87967 16.008 9.87967H18.8973C19.1546 9.87967 19.3634 10.0884 19.3634 10.3457V12.398" stroke="#2F3E45" stroke-width="0.838835" stroke-linecap="round" stroke-linejoin="round"/>
<path d="M3.96191 7.05417V4.59685C3.96191 4.33961 4.17069 4.13083 4.42793 4.13083H7.31725C7.5745 4.13083 7.78327 4.33961 7.78327 4.59685V7.05417" stroke="#2F3E45" stroke-width="0.838835" stroke-linecap="round" stroke-linejoin="round"/>
<path d="M23.5806 15.8447V8.20197C23.5806 7.89347 23.4553 7.61386 23.253 7.41114C23.0503 7.20889 22.7707 7.08353 22.4622 7.08353C21.8447 7.08353 21.3438 7.5845 21.3438 8.20197V13.3599" stroke="#2F3E45" stroke-width="0.838835" stroke-linecap="round" stroke-linejoin="round"/>
<path d="M18.665 9.87966V2.28354C18.665 1.2541 17.8304 0.419464 16.8009 0.419464H6.52521C5.49577 0.419464 4.66113 1.2541 4.66113 2.28354V4.13131" stroke="#2F3E45" stroke-width="0.838835" stroke-linecap="round" stroke-linejoin="round"/>
<path d="M12.2002 2.8428H15.9614C16.1157 2.8428 16.241 2.96816 16.241 3.12242V9.8797" stroke="#2F3E45" stroke-width="0.838835" stroke-linecap="round" stroke-linejoin="round"/>
<path d="M7.08398 4.13086V3.12193C7.08398 2.96767 7.20934 2.84232 7.3636 2.84232H10.8024" stroke="#2F3E45" stroke-width="0.838835" stroke-linecap="round" stroke-linejoin="round"/>
<path d="M11.3248 23.5806H0.885941C0.628699 23.5806 0.419922 23.3719 0.419922 23.1146V9.42389C0.419922 9.25939 0.506602 9.10746 0.647805 9.02312L5.63421 6.0597C5.78101 5.97255 5.96369 5.97255 6.11048 6.0597L11.0969 9.02312C11.2381 9.107 11.3248 9.25939 11.3248 9.42389V23.5806Z" stroke="#2F3E45" stroke-width="0.838835" stroke-linecap="round" stroke-linejoin="round"/>
<path d="M0.419922 10.5568H11.3248" stroke="#2F3E45" stroke-width="0.838835" stroke-linecap="round" stroke-linejoin="round"/>
<path d="M11.3248 12.4334H0.419922" stroke="#2F3E45" stroke-width="0.838835" stroke-linecap="round" stroke-linejoin="round"/>
<path d="M23.5815 22.0166V23.1146C23.5815 23.3718 23.3727 23.5806 23.1155 23.5806H11.3252" stroke="#2F3E45" stroke-width="0.838835" stroke-linecap="round" stroke-linejoin="round"/>
<path d="M11.3252 14.7416C11.3252 14.5612 11.4291 14.3972 11.5922 14.3203L17.3354 11.6062C17.4631 11.5461 17.6113 11.5465 17.7381 11.6085L23.3191 14.3193C23.4794 14.3972 23.5815 14.5603 23.5815 14.7388V20.619" stroke="#2F3E45" stroke-width="0.838835" stroke-linecap="round" stroke-linejoin="round"/>
<path d="M11.3252 15.8302H23.5815" stroke="#2F3E45" stroke-width="0.838835" stroke-linecap="round" stroke-linejoin="round"/>
<path d="M23.5815 17.7069H11.3252" stroke="#2F3E45" stroke-width="0.838835" stroke-linecap="round" stroke-linejoin="round"/>
<path d="M6.76723 14.6969C7.04265 14.6946 7.22673 14.9476 7.13446 15.1858C6.88933 15.8191 6.61764 16.4445 6.35294 17.0703C6.33663 17.1081 6.34828 17.1239 6.3795 17.1421C6.87535 17.4282 7.37026 17.7167 7.86657 18.0019C8.11123 18.1427 8.14991 18.4288 7.9458 18.6222C7.04684 19.475 6.14649 20.3264 5.24661 21.1778C5.09562 21.3209 4.94696 21.3531 4.79224 21.278C4.62354 21.1965 4.54106 21.0045 4.60956 20.8269C4.70323 20.5841 4.80622 20.3451 4.90642 20.1046C5.06766 19.7169 5.2289 19.3291 5.39201 18.9423C5.40879 18.9027 5.39481 18.8888 5.36451 18.8715C4.86261 18.583 4.35558 18.2997 3.85974 18.0005C3.62906 17.8612 3.60156 17.5774 3.79822 17.391C4.69764 16.5386 5.59985 15.6891 6.49741 14.8348C6.58036 14.7561 6.67123 14.6997 6.76723 14.6964V14.6969Z" stroke="#2F3E45" stroke-width="0.838835" stroke-linecap="round" stroke-linejoin="round"/>
<path d="M17.4531 23.5806V21.3172" stroke="#2F3E45" stroke-width="0.838835" stroke-linecap="round" stroke-linejoin="round"/>
<path d="M18.2938 22.191H17.4531V21.3503C17.4531 20.2346 18.3577 19.3306 19.4729 19.3306H20.1271C20.2301 19.3306 20.3136 19.414 20.3136 19.517V20.1713C20.3136 21.2869 19.4095 22.191 18.2938 22.191Z" stroke="#2F3E45" stroke-width="0.838835" stroke-linecap="round" stroke-linejoin="round"/>
<path d="M16.6125 22.191H17.4532V21.3503C17.4532 20.2347 16.5487 19.3306 15.4335 19.3306H14.7792C14.6762 19.3306 14.5928 19.414 14.5928 19.517V20.1713C14.5928 21.2869 15.4969 22.191 16.6125 22.191Z" stroke="#2F3E45" stroke-width="0.838835" stroke-linecap="round" stroke-linejoin="round"/>
</g>
</g>
<defs>
<clipPath id="clip0_999_9306">
<rect width="24" height="24" fill="white"/>
</clipPath>
</defs>
</svg>
