<svg width="81" height="80" viewBox="0 0 81 80" fill="none" xmlns="http://www.w3.org/2000/svg">
<g clip-path="url(#clip0_576_2095)">
<path d="M3.30555 34.2191C2.44473 34.2191 1.74609 34.9178 1.74609 35.7786V76.8811C1.74609 77.7419 2.44473 78.4406 3.30555 78.4406H18.6475V34.2191H3.30555ZM38.2514 78.4406H33.311V70.0304C33.311 69.7716 33.52 69.5626 33.7788 69.5626H37.7835C38.0424 69.5626 38.2514 69.7716 38.2514 70.0304V78.4406Z" stroke="#36474F" stroke-width="3.11891" stroke-linecap="round" stroke-linejoin="round"/>
<path d="M59.1472 41.324C58.9928 41.4035 58.8945 41.5626 58.8945 41.7372V48.1201C58.8945 48.3789 59.1035 48.5879 59.3624 48.5879H63.367C63.6259 48.5879 63.8349 48.3789 63.8349 48.1201V41.7372C63.8349 41.5563 63.732 41.4019 63.5823 41.324" stroke="#36474F" stroke-width="3.11891" stroke-linejoin="round"/>
<path d="M56.457 21.1758L60.705 25.6359L66.6527 18.9458M63.367 63.9579H59.3623C59.1034 63.9579 58.8945 63.7489 58.8945 63.4901V57.1072C58.8945 56.8483 59.1034 56.6394 59.3623 56.6394H63.367C63.6258 56.6394 63.8348 56.8483 63.8348 57.1072V63.4901C63.8348 63.7489 63.6258 63.9579 63.367 63.9579Z" stroke="#FF9900" stroke-width="3.11891" stroke-linecap="round" stroke-linejoin="round"/>
<path d="M52.6927 13.6624L50.0634 15.1798C49.9324 15.2562 49.8513 15.3965 49.8513 15.5478V19.4979C49.8513 25.1291 52.8548 30.333 57.7328 33.1478L61.1543 35.1236C61.2852 35.2 61.4474 35.2 61.5784 35.1236L64.9999 33.1493C69.8763 30.3345 72.8813 25.1306 72.8813 19.4994V15.5493C72.8813 15.3981 72.8003 15.2577 72.6693 15.1813L61.58 8.7782C61.449 8.70178 61.2868 8.70178 61.1558 8.7782L57.4334 10.9271M43.4794 15.1002H20.2092C19.3484 15.1002 18.6498 15.7989 18.6498 16.6597V21.6546M28.1188 34.6823H24.1141C23.8552 34.6823 23.6463 34.4733 23.6463 34.2145V27.8316C23.6463 27.5727 23.8552 27.3638 24.1141 27.3638H28.1188C28.3776 27.3638 28.5866 27.5727 28.5866 27.8316V34.2145C28.5866 34.4733 28.3776 34.6823 28.1188 34.6823ZM28.1188 49.3209H24.1141C23.8552 49.3209 23.6463 49.1119 23.6463 48.853V42.4702C23.6463 42.2113 23.8552 42.0024 24.1141 42.0024H28.1188C28.3776 42.0024 28.5866 42.2113 28.5866 42.4702V48.853C28.5866 49.1119 28.3776 49.3209 28.1188 49.3209ZM28.1188 63.9595H24.1141C23.8552 63.9595 23.6463 63.7505 23.6463 63.4916V57.1088C23.6463 56.8499 23.8552 56.641 24.1141 56.641H28.1188C28.3776 56.641 28.5866 56.8499 28.5866 57.1088V63.4916C28.5866 63.7505 28.3776 63.9595 28.1188 63.9595ZM37.7874 34.6823H33.7827C33.5238 34.6823 33.3149 34.4733 33.3149 34.2145V27.8316C33.3149 27.5727 33.5238 27.3638 33.7827 27.3638H37.7874C38.0463 27.3638 38.2552 27.5727 38.2552 27.8316V34.2145C38.2552 34.4733 38.0463 34.6823 37.7874 34.6823ZM37.7874 49.3209H33.7827C33.5238 49.3209 33.3149 49.1119 33.3149 48.853V42.4702C33.3149 42.2113 33.5238 42.0024 33.7827 42.0024H37.7874C38.0463 42.0024 38.2552 42.2113 38.2552 42.4702V48.853C38.2552 49.1119 38.0463 49.3209 37.7874 49.3209ZM37.7874 63.9595H33.7827C33.5238 63.9595 33.3149 63.7505 33.3149 63.4916V57.1088C33.3149 56.8499 33.5238 56.641 33.7827 56.641H37.7874C38.0463 56.641 38.2552 56.8499 38.2552 57.1088V63.4916C38.2552 63.7505 38.0463 63.9595 37.7874 63.9595ZM47.456 49.3209H43.4513C43.1925 49.3209 42.9835 49.1119 42.9835 48.853V42.4702C42.9835 42.2113 43.1925 42.0024 43.4513 42.0024H47.456C47.7149 42.0024 47.9238 42.2113 47.9238 42.4702V48.853C47.9238 49.1119 47.7149 49.3209 47.456 49.3209ZM47.456 63.9595H43.4513C43.1925 63.9595 42.9835 63.7505 42.9835 63.4916V57.1088C42.9835 56.8499 43.1925 56.641 43.4513 56.641H47.456C47.7149 56.641 47.9238 56.8499 47.9238 57.1088V63.4916C47.9238 63.7505 47.7149 63.9595 47.456 63.9595ZM12.203 48.5895H8.19831C7.93944 48.5895 7.73047 48.3805 7.73047 48.1217V41.7388C7.73047 41.4799 7.93944 41.271 8.19831 41.271H12.203C12.4619 41.271 12.6708 41.4799 12.6708 41.7388V48.1217C12.6708 48.3805 12.4619 48.5895 12.203 48.5895ZM12.203 63.9595H8.19831C7.93944 63.9595 7.73047 63.7505 7.73047 63.4916V57.1088C7.73047 56.8499 7.93944 56.641 8.19831 56.641H12.203C12.4619 56.641 12.6708 56.8499 12.6708 57.1088V63.4916C12.6708 63.7505 12.4619 63.9595 12.203 63.9595Z" stroke="#36474F" stroke-width="3.11891" stroke-linecap="round" stroke-linejoin="round"/>
<path d="M18.6484 27.1127V78.4405H52.9143M52.9143 78.4405V37.6234M52.9143 78.4405H68.2562C69.1171 78.4405 69.8157 77.7419 69.8157 76.8811V71.1641" stroke="#36474F" stroke-width="3.11891" stroke-linecap="round" stroke-linejoin="round"/>
<path d="M44.9235 27.3622H43.4483C43.1894 27.3622 42.9805 27.5711 42.9805 27.83V34.2129C42.9805 34.4717 43.1894 34.6807 43.4483 34.6807H47.453C47.7119 34.6807 47.9208 34.4717 47.9208 34.2129V32.7938" stroke="#36474F" stroke-width="3.11891" stroke-linejoin="round"/>
<path d="M69.8145 65.7061V37.6234" stroke="#36474F" stroke-width="3.11891" stroke-linecap="round" stroke-linejoin="round"/>
<path d="M54.544 38.6667C47.6964 34.7134 43.4766 27.4058 43.4766 19.4978V12.6035C43.4766 11.9969 43.8009 11.4355 44.3265 11.1314L60.5136 1.78557C61.0391 1.48147 61.6863 1.48147 62.2134 1.78557L78.4005 11.1314C78.9261 11.4355 79.2504 11.9953 79.2504 12.6035V19.4978C79.2504 27.4058 75.0321 34.7119 68.183 38.6667L62.2134 42.1131C61.6879 42.4171 61.0407 42.4171 60.5136 42.1131L54.544 38.6667Z" stroke="#FF9900" stroke-width="3.11891" stroke-linecap="round" stroke-linejoin="round"/>
</g>
<defs>
<clipPath id="clip0_576_2095">
<rect width="80.6238" height="80" fill="white" transform="translate(0.1875)"/>
</clipPath>
</defs>
</svg>
