<svg width="27" height="24" viewBox="0 0 27 24" fill="none" xmlns="http://www.w3.org/2000/svg">
<g clip-path="url(#clip0_999_9332)">
<path d="M12.8176 11.5361L10.9048 6.70081C10.7007 6.18469 10.2021 5.84541 9.64688 5.84541H7.88724C7.55721 5.84541 7.2385 5.96622 6.99072 6.18521L4.92522 8.0127C4.66099 8.2466 4.49855 8.57405 4.47233 8.92619L4.0729 14.3207L2.19298 15.0353C1.66812 15.2348 1.32113 15.738 1.32113 16.2999V18.7787L0.572144 20.308C0.307916 20.8468 0.700145 21.4755 1.30006 21.4755H5.80478M21.6836 21.4755H25.2265C25.6743 21.4755 26.0372 21.1125 26.0372 20.6643V20.0541C26.0372 19.6012 25.8105 19.1781 25.4337 18.9278L23.2248 17.4581V14.2082C23.2248 13.544 22.7421 12.978 22.0861 12.8726L16.4577 11.9705C16.1703 11.9242 15.8758 11.972 15.6177 12.1067L13.4838 13.2201" stroke="#36474F" stroke-width="0.976717" stroke-linecap="round" stroke-linejoin="round"/>
<path d="M13.6596 23.5116H20.8729C21.3206 23.5116 21.6835 23.1487 21.6835 22.701V20.8971C21.6835 20.4345 21.4471 20.0042 21.0569 19.7559L17.4456 17.4581V15.9488C17.4456 15.4255 17.1439 14.9489 16.6704 14.7253L13.4832 13.2201L10.3464 15.9719L8.28041 16.0845C7.70312 16.1158 7.20962 16.5106 7.05231 17.0669L5.52041 22.4799C5.3739 22.9976 5.76253 23.5116 6.30076 23.5116H11.8372M20.5089 4.16544H18.4922V0.776234C18.4922 0.462142 18.0609 0.37578 17.9396 0.665711L15.944 5.44032C15.7857 5.81969 16.0643 6.23814 16.4751 6.23814H18.4917V9.62735C18.4917 9.94144 18.923 10.0278 19.0443 9.73787L21.0399 4.96327C21.1983 4.58389 20.9196 4.16596 20.5089 4.16596V4.16544Z" stroke="#36474F" stroke-width="0.976717" stroke-linecap="round" stroke-linejoin="round"/>
<path d="M17.4461 17.4581L15.9934 19.76L13.3259 20.3378C12.9141 20.4273 12.5867 20.7383 12.4767 21.1449L11.8367 23.5116M4.07227 14.3207L5.53271 13.856C5.89873 13.7398 6.14702 13.3995 6.14702 13.016V9.9142" stroke="#36474F" stroke-width="0.976717" stroke-linecap="round" stroke-linejoin="round"/>
</g>
<defs>
<clipPath id="clip0_999_9332">
<rect width="26.5256" height="24" fill="white"/>
</clipPath>
</defs>
</svg>
