<svg width="60" height="64" viewBox="0 0 60 64" fill="none" xmlns="http://www.w3.org/2000/svg">
<path d="M47.5 37.5V51.5C47.5 57.0229 43.0229 61.5 37.5 61.5H12.5C6.97713 61.5 2.5 57.0229 2.5 51.5V12.5C2.5 6.97713 6.97713 2.5 12.5 2.5H28.5457M12.5 17.5H22.5M12.5 27.5H22.5" stroke="#2F3E45" stroke-width="3.75" stroke-miterlimit="10" stroke-linecap="round" stroke-linejoin="round"/>
<path d="M22.5 46.5L27.5 51.5L37.5 41.5M57.5 7.5V11.3C57.5 18.15 53.6499 24.45 47.5 27.5C41.3501 24.4501 37.5 18.15 37.5 11.3V7.5C37.5 7.5 42.0001 2.5 47.5 2.5C52.9999 2.5 57.5 7.5 57.5 7.5Z" stroke="#2F3E45" stroke-width="3.75" stroke-miterlimit="10" stroke-linecap="round" stroke-linejoin="round"/>
</svg>
