<svg width="64" height="62" viewBox="0 0 64 62" fill="none" xmlns="http://www.w3.org/2000/svg">
<path fill-rule="evenodd" clip-rule="evenodd" d="M29.2537 35.4231C17.4677 35.4231 7.62533 43.6941 5.31561 54.66C5.1958 55.2966 5.36664 55.9528 5.78377 56.4538C6.20533 56.9591 6.83545 57.25 7.49664 57.25H42.7614C43.9862 57.25 44.9802 58.23 44.9802 59.4375C44.9802 60.645 43.9862 61.625 42.7614 61.625H7.49886C5.50864 61.625 3.62492 60.75 2.36023 59.2363C1.09333 57.7203 0.583016 55.7297 0.964641 53.8047C0.964641 53.7959 0.96686 53.7872 0.969078 53.7806C3.03473 43.9478 10.2346 35.9459 19.6754 32.6603C14.7475 29.5431 11.4793 24.0941 11.4793 17.8991C11.4793 8.22812 19.4446 0.375 29.2537 0.375C37.2922 0.375 44.0905 5.64687 46.2848 12.8722C46.7685 14.4647 47.0281 16.1534 47.0281 17.8991C47.0281 20.1281 46.6043 22.2609 45.8344 24.2231C44.4632 27.7144 41.9871 30.6653 38.8343 32.6603C40.6048 33.2772 42.2977 34.0603 43.8908 34.99C44.9447 35.6047 45.2953 36.9478 44.6696 37.9869C44.0461 39.0259 42.686 39.3716 41.6321 38.7547C38.0045 36.6394 33.7711 35.4231 29.2537 35.4231ZM29.2537 31.0481C34.9204 31.0481 39.7639 27.5591 41.6964 22.6438C42.2755 21.1716 42.5906 19.5725 42.5906 17.8991C42.5906 16.5887 42.3976 15.3222 42.0337 14.1278C40.3874 8.705 35.2865 4.75 29.2537 4.75C21.8919 4.75 15.9168 10.6431 15.9168 17.8991C15.9168 25.1572 21.8919 31.0481 29.2537 31.0481Z" fill="#2F3E45"/>
<path fill-rule="evenodd" clip-rule="evenodd" d="M50.0566 50.4883H43.4004C42.1756 50.4883 41.1816 49.5083 41.1816 48.3008C41.1816 47.0933 42.1756 46.1133 43.4004 46.1133H50.0566V39.5508C50.0566 38.3433 51.0506 37.3633 52.2754 37.3633C53.5001 37.3633 54.4941 38.3433 54.4941 39.5508V46.1133H61.1504C62.3751 46.1133 63.3691 47.0933 63.3691 48.3008C63.3691 49.5083 62.3751 50.4883 61.1504 50.4883H54.4941V57.0508C54.4941 58.2583 53.5001 59.2383 52.2754 59.2383C51.0506 59.2383 50.0566 58.2583 50.0566 57.0508V50.4883Z" fill="#FF9900"/>
</svg>
