<svg width="62" height="62" viewBox="0 0 62 62" fill="none" xmlns="http://www.w3.org/2000/svg">
<path d="M56 11.5L49.7775 51.9834C49.0433 56.8786 44.8381 60.5 39.8881 60.5H22.1119C17.1619 60.5 12.9567 56.8786 12.2225 51.9834L6 11.5" stroke="#2F3E45" stroke-width="3" stroke-miterlimit="10" stroke-linecap="round" stroke-linejoin="round"/>
<path d="M31 35.5V50.5" stroke="#2F3E45" stroke-width="3" stroke-miterlimit="10" stroke-linecap="round" stroke-linejoin="round"/>
<path d="M41 35.5C41 41.0229 36.5229 45.5 31 45.5C25.4771 45.5 21 41.0229 21 35.5C21 28 31 20.5 31 20.5C31 20.5 41 28 41 35.5Z" stroke="#2F3E45" stroke-width="3" stroke-miterlimit="10" stroke-linecap="round" stroke-linejoin="round"/>
<path d="M1.5 11.5H60.5" stroke="#2F3E45" stroke-width="3" stroke-miterlimit="10" stroke-linecap="round" stroke-linejoin="round"/>
<path d="M23.5 11.5V6.5C23.5 3.73863 25.7386 1.5 28.5 1.5H33.5C36.2614 1.5 38.5 3.73863 38.5 6.5V11.5" stroke="#2F3E45" stroke-width="3" stroke-miterlimit="10" stroke-linecap="round" stroke-linejoin="round"/>
</svg>
